<svg xmlns="http://www.w3.org/2000/svg" viewBox="0 0 1024 1024" role="img" aria-label="Acta icon">
  <defs>
    <linearGradient id="bg" x1="0" y1="0" x2="1" y2="1">
      <stop offset="0%" stop-color="#0b1220"/>
      <stop offset="48%" stop-color="#0f172a"/>
      <stop offset="100%" stop-color="#1f2937"/>
    </linearGradient>

    <radialGradient id="glowA" cx="0.18" cy="0.16" r="0.72">
      <stop offset="0%" stop-color="#22d3ee" stop-opacity="0.52"/>
      <stop offset="65%" stop-color="#22d3ee" stop-opacity="0.1"/>
      <stop offset="100%" stop-color="#22d3ee" stop-opacity="0"/>
    </radialGradient>

    <radialGradient id="glowB" cx="0.84" cy="0.82" r="0.74">
      <stop offset="0%" stop-color="#60a5fa" stop-opacity="0.44"/>
      <stop offset="66%" stop-color="#60a5fa" stop-opacity="0.08"/>
      <stop offset="100%" stop-color="#60a5fa" stop-opacity="0"/>
    </radialGradient>

    <linearGradient id="aFill" x1="0" y1="0" x2="1" y2="1">
      <stop offset="0%" stop-color="#f8fafc"/>
      <stop offset="100%" stop-color="#dbeafe"/>
    </linearGradient>

    <linearGradient id="barFill" x1="0" y1="0" x2="1" y2="0">
      <stop offset="0%" stop-color="#67e8f9"/>
      <stop offset="100%" stop-color="#60a5fa"/>
    </linearGradient>

    <filter id="softShadow" x="-20%" y="-20%" width="140%" height="140%">
      <feDropShadow dx="0" dy="20" stdDeviation="18" flood-color="#020617" flood-opacity="0.4"/>
    </filter>

    <clipPath id="clipCard">
      <rect x="56" y="56" width="912" height="912" rx="222"/>
    </clipPath>
  </defs>

  <rect x="56" y="56" width="912" height="912" rx="222" fill="url(#bg)"/>

  <g clip-path="url(#clipCard)">
    <rect x="56" y="56" width="912" height="912" fill="url(#glowA)"/>
    <rect x="56" y="56" width="912" height="912" fill="url(#glowB)"/>

    <g opacity="0.14">
      <path d="M80 208 L980 208" stroke="#e2e8f0" stroke-width="2"/>
      <path d="M80 308 L980 308" stroke="#e2e8f0" stroke-width="2"/>
      <path d="M80 408 L980 408" stroke="#e2e8f0" stroke-width="2"/>
      <path d="M80 508 L980 508" stroke="#e2e8f0" stroke-width="2"/>
      <path d="M80 608 L980 608" stroke="#e2e8f0" stroke-width="2"/>
      <path d="M80 708 L980 708" stroke="#e2e8f0" stroke-width="2"/>
      <path d="M80 808 L980 808" stroke="#e2e8f0" stroke-width="2"/>
    </g>
  </g>

  <rect x="56" y="56" width="912" height="912" rx="222" fill="none" stroke="#e2e8f0" stroke-opacity="0.18" stroke-width="3"/>

  <g filter="url(#softShadow)">
    <path d="M512 228 L760 792 H663 L602 648 H422 L361 792 H264 Z" fill="url(#aFill)"/>
    <path d="M512 385 L559 510 H465 Z" fill="#0f172a" fill-opacity="0.88"/>
    <rect x="378" y="560" width="292" height="72" rx="36" fill="url(#barFill)"/>
  </g>
</svg>
